<?xml version="1.0" encoding="UTF-8"?>
<svg width="408px" height="132px" viewBox="0 0 408 132" version="1.1" xmlns="http://www.w3.org/2000/svg" xmlns:xlink="http://www.w3.org/1999/xlink">
    <!-- Generator: Sketch 53.1 (72631) - https://sketchapp.com -->
    <title>Logo Dark</title>
    <desc>Created with Sketch.</desc>
    <g id="Logo-Dark" stroke="none" stroke-width="1" fill="none" fill-rule="evenodd">
        <g id="Group">
            <g transform="translate(143.000000, 0.000000)" id="Shape">
                <path d="M14,21 L15,116 C7,117 1,113 1,105 L0,26 C0,1 23,-5 37,5 L108,46 C118,53 120,66 115,75 C114,68 111,64 105,60 L25,15 C19,11 14,12 14,21 Z" fill="#FFFFFF"></path>
                <path d="M8,121 C14,123 20,122 25,119 L107,71 C112,78 111,85 105,89 L36,129 C26,134 13,129 8,121 Z" fill="#FFFFFF"></path>
                <polygon fill="#FFC230" points="32 93 81 65 33 38"></polygon>
            </g>
            <path d="M22,29 C25,29 28,29 32,30 C44,34 51,43 51,56 C51,60 50,64 48,68 C45,73 41,77 35,79 L35,79 C47,99 53,109 53,110 L36,110 C35,110 33,107 30,102 C17,79 11,67 10,66 L10,66 L21,66 C30,66 35,63 35,56 L35,55 C35,53 34,52 34,50 C31,46 27,45 21,45 L1,45 C0,44 0,44 0,44 L0,30 C0,29 0,29 1,29 L22,29 Z" id="Shape" fill="#FFC230" fill-rule="nonzero"></path>
            <path d="M91,29 L105,29 C106,29 108,31 109,35 C109,35 120,60 142,109 C142,110 141,110 140,110 L126,110 C125,110 123,108 122,103 C119,97 111,79 98,48 C85,78 76,99 71,110 L70,110 L56,110 C55,110 54,110 54,109 C73,66 85,39 90,29 L91,29 Z" id="Shape" fill="#FFC230" fill-rule="nonzero"></path>
            <path d="M335,29 C338,29 341,29 345,30 C358,34 364,43 364,56 C364,60 363,64 361,68 C358,73 354,77 348,79 L346,79 L361,110 L343,110 L323,66 L323,66 L334,66 C343,66 348,63 348,56 L348,55 C348,53 347,52 347,50 C344,46 340,45 334,45 L314,45 L311,38 C310,37 309,35 308,33 C308,32 307,30 307,29 L335,29 Z" id="Shape" fill="#FFC230" fill-rule="nonzero"></path>
            <path d="M379,29 C382,29 385,29 388,30 C401,34 408,43 408,56 C408,60 407,64 405,68 C402,73 398,77 392,79 L390,79 L405,110 L387,110 L367,66 L367,66 L378,66 C387,66 392,63 392,56 L392,55 C392,53 391,52 390,50 C388,46 384,45 378,45 L368,45 C365,37 360,32 352,29 L379,29 Z" id="Shape" fill="#FFC230" fill-rule="nonzero"></path>
            <path d="M286,29 L300,29 C301,29 303,31 304,35 C304,35 315,60 337,109 C337,110 336,110 335,110 L321,110 C320,110 318,108 317,103 C314,97 306,79 293,48 L293,48 C280,78 271,99 266,110 L265,110 L251,110 C250,110 249,110 249,109 C268,66 280,39 285,29 L286,29 Z" id="Shape" fill="#FFC230" fill-rule="nonzero"></path>
        </g>
    </g>
</svg>